<svg xmlns="http://www.w3.org/2000/svg" viewBox="-26 -28 52 52" height="500px" width="500px">
  <defs>
    <clipPath id="b">
      <circle cy="-15" r="9.5" stroke="" />
      <circle cy="-15" r="9.5" transform="rotate(120)" />
      <circle cy="-15" r="9.5" transform="rotate(240)" />
    </clipPath>
    <mask width="60" height="60" x="-30" y="-30" id="a" maskUnits="userSpaceOnUse">
      <path d="M-27-27h54v54h-54z" fill="white" />
      <path d="M2-23v-4h-4v4M-.5-6v4h1v-4" />
      <circle cy="-15" r="10.5" />
      <g transform="rotate(120)">
        <path d="M2-23v-4h-4v4M-.5-6v4h1v-4" />
        <circle cy="-15" r="10.5" />
      </g>
      <g transform="rotate(240)">
        <path d="M2-23v-4h-4v4M-.5-6v4h1v-4" />
        <circle cy="-15" r="10.5" />
      </g>
      <circle r="3" />
    </mask>
  </defs>
  <g mask="url(#a)" fill="#012345">
    <circle cy="-11" r="15" />
    <circle cy="-11" r="15" transform="rotate(120)" />
    <circle cy="-11" r="15" transform="rotate(240)" />
  </g>
  <circle r="11.75" fill="none" stroke-width="3.5" clip-path="url(#b)" stroke="#990000" />
</svg>