<svg width="547" height="547" xmlns="http://www.w3.org/2000/svg" xmlns:xlink="http://www.w3.org/1999/xlink" xml:space="preserve" overflow="hidden"><g transform="translate(-1611 -182)"><path d="M1625 455.5C1625 312.182 1741.18 196 1884.5 196 2027.82 196 2144 312.182 2144 455.5 2144 598.818 2027.82 715 1884.5 715 1741.18 715 1625 598.818 1625 455.5Z" stroke="#F0F8FF" stroke-width="27.5" stroke-miterlimit="8" fill="none" fill-rule="evenodd"/><path d="M1729 354C1729 332.461 1746.24 315 1767.5 315 1788.76 315 1806 332.461 1806 354 1806 375.539 1788.76 393 1767.5 393 1746.24 393 1729 375.539 1729 354Z" stroke="#F0F8FF" stroke-width="27.5" stroke-miterlimit="8" fill="#F0F8FF" fill-rule="evenodd"/><path d="M0 74.5017C-1.05031e-15 33.3556 3.69357-9.48506e-15 8.24982-1.89701e-14 12.8061-3.79403e-14 16.4996 33.3556 16.4996 74.5017 16.4996 115.648 12.8061 149.003 8.24982 149.003 3.69357 149.003-5.25156e-15 115.648 0 74.5017Z" stroke="#F0F8FF" stroke-width="4.58333" stroke-miterlimit="8" fill="#F0F8FF" fill-rule="evenodd" transform="matrix(-0.471689 -0.881765 -0.881765 0.471689 2010.1 560.298)"/><path d="M0 55.5273C-1.05031e-15 24.8604 3.69357-7.06936e-15 8.24982-1.41387e-14 12.8061-2.82774e-14 16.4996 24.8604 16.4996 55.5273 16.4996 86.1941 12.8061 111.055 8.24982 111.055 3.69357 111.055-5.25156e-15 86.1941 0 55.5273Z" stroke="#F0F8FF" stroke-width="4.58333" stroke-miterlimit="8" fill="#F0F8FF" fill-rule="evenodd" transform="matrix(-0.471689 -0.881765 -0.881765 0.471689 2004.28 595.344)"/><path d="M0 55.5273C-1.05031e-15 24.8604 3.69357-7.06936e-15 8.24982-1.41387e-14 12.8061-2.82774e-14 16.4996 24.8604 16.4996 55.5273 16.4996 86.1941 12.8061 111.055 8.24982 111.055 3.69357 111.055-5.25156e-15 86.1941 0 55.5273Z" stroke="#F0F8FF" stroke-width="4.58333" stroke-miterlimit="8" fill="#F0F8FF" fill-rule="evenodd" transform="matrix(-0.471689 -0.881765 -0.881765 0.471689 1951.27 500.543)"/><path d="M0 74.5017C-1.05031e-15 33.3556 3.69357-9.48506e-15 8.24982-1.89701e-14 12.8061-3.79403e-14 16.4996 33.3556 16.4996 74.5017 16.4996 115.648 12.8061 149.003 8.24982 149.003 3.69357 149.003-5.25156e-15 115.648 0 74.5017Z" stroke="#F0F8FF" stroke-width="4.58333" stroke-miterlimit="8" fill="#F0F8FF" fill-rule="evenodd" transform="matrix(-0.471689 -0.881765 -0.881765 0.471689 1985.76 514.08)"/><path d="M0 91.6681C-1.05031e-15 41.0412 3.69357-1.16706e-14 8.24982-2.33411e-14 12.8061-4.66823e-14 16.4996 41.0412 16.4996 91.6681 16.4996 142.295 12.8061 183.336 8.24982 183.336 3.69357 183.336-5.25156e-15 142.295 0 91.6681Z" stroke="#F0F8FF" stroke-width="4.58333" stroke-miterlimit="8" fill="#F0F8FF" fill-rule="evenodd" transform="matrix(-0.471689 -0.881765 -0.881765 0.471689 2010.72 529.525)"/><path d="M1834.04 340.312C1845.27 370.541 1828.4 403.637 1796.35 414.234 1787.61 417.123 1778.29 418.114 1769.09 417.133" stroke="#F0F8FF" stroke-width="6.875" stroke-linecap="round" stroke-linejoin="round" stroke-miterlimit="10" fill="none" fill-rule="evenodd"/><path d="M1823.31 422.426C1803.65 439.623 1770.66 443.529 1745.11 431.686" stroke="#F0F8FF" stroke-width="6.875" stroke-linecap="round" stroke-linejoin="round" stroke-miterlimit="10" fill="none" fill-rule="evenodd"/><path d="M1860.66 353.643C1873.83 393.495 1852.21 436.483 1812.36 449.658 1801.76 453.161 1790.53 454.288 1779.45 452.959" stroke="#F0F8FF" stroke-width="6.875" stroke-linecap="round" stroke-linejoin="round" stroke-miterlimit="10" fill="none" fill-rule="evenodd"/><path d="M1821.65 398.596 1795.5 381.5" stroke="#F0F8FF" stroke-width="6.875" stroke-linecap="round" stroke-linejoin="round" stroke-miterlimit="10" fill="none" fill-rule="evenodd"/><path d="M1863.65 386.596 1837.5 369.5" stroke="#F0F8FF" stroke-width="6.875" stroke-linecap="round" stroke-linejoin="round" stroke-miterlimit="10" fill="none" fill-rule="evenodd"/><path d="M0 0 0.000360892 19.4882" stroke="#F0F8FF" stroke-width="6.875" stroke-linecap="round" stroke-linejoin="round" stroke-miterlimit="10" fill="none" fill-rule="evenodd" transform="matrix(1 0 0 -1 1780.5 436.988)"/><path d="M0 0 0.000360892 19.4882" stroke="#F0F8FF" stroke-width="6.875" stroke-linecap="round" stroke-linejoin="round" stroke-miterlimit="10" fill="none" fill-rule="evenodd" transform="matrix(1 0 0 -1 1800.5 453.988)"/></g></svg>