<svg width="1132" height="735" xmlns="http://www.w3.org/2000/svg" xmlns:xlink="http://www.w3.org/1999/xlink" xml:space="preserve" overflow="hidden"><g transform="translate(-2584 -80)"><path d="M2735.25 632.25 3563.18 632.25 3563.18 659.75 2735.25 659.75ZM3487.61 585.998 3590.47 646 3487.61 706.002C3481.05 709.828 3472.63 707.613 3468.81 701.053 3464.98 694.494 3467.2 686.075 3473.75 682.248L3556.25 634.123 3556.25 657.877 3473.75 609.752C3467.2 605.926 3464.98 597.506 3468.81 590.947 3472.63 584.388 3481.05 582.172 3487.61 585.998Z" fill="#F0F8FF"/><path d="M13.75-1.10407e-05 13.7503 422.228-13.7497 422.228-13.75 1.10407e-05ZM60.0022 346.656 0.00036257 449.517-60.0017 346.656C-63.828 340.097-61.6124 331.677-55.053 327.851-48.4935 324.025-40.0741 326.24-36.2478 332.8L11.8773 415.3-11.8766 415.3 36.2483 332.8C40.0747 326.24 48.494 324.025 55.0535 327.851 61.613 331.677 63.8286 340.097 60.0022 346.656Z" fill="#F0F8FF" transform="matrix(1 0 0 -1 2749 654.453)"/><path d="M0 0 0.000360892 86.7968" stroke="#F0F8FF" stroke-width="36.6667" stroke-miterlimit="8" fill="none" fill-rule="evenodd" transform="matrix(1 0 0 -1 2879.5 655.297)"/><path d="M0 0 0.000360892 259.531" stroke="#F0F8FF" stroke-width="36.6667" stroke-miterlimit="8" fill="none" fill-rule="evenodd" transform="matrix(1 0 0 -1 2970.5 655.031)"/><path d="M0 0 0.000360892 353.203" stroke="#F0F8FF" stroke-width="36.6667" stroke-miterlimit="8" fill="none" fill-rule="evenodd" transform="matrix(1 0 0 -1 3061.5 654.703)"/><path d="M0 0 0.000360892 224.727" stroke="#F0F8FF" stroke-width="36.6667" stroke-miterlimit="8" fill="none" fill-rule="evenodd" transform="matrix(1 0 0 -1 3152.5 655.227)"/><path d="M0 0 0.000360892 145.234" stroke="#F0F8FF" stroke-width="36.6667" stroke-miterlimit="8" fill="none" fill-rule="evenodd" transform="matrix(1 0 0 -1 3334.5 654.734)"/><text fill="#F0F8FF" font-family="Cascadia Code,Cascadia Code_MSFontService,sans-serif" font-weight="700" font-size="83" transform="matrix(1 0 0 1 3016.32 745)">m/Z</text><text fill="#F0F8FF" font-family="Cascadia Code,Cascadia Code_MSFontService,sans-serif" font-weight="700" font-size="83" transform="matrix(1 0 0 1 3160.69 745)"> </text><text fill="#F0F8FF" font-family="Cascadia Code,Cascadia Code_MSFontService,sans-serif" font-weight="700" font-size="83" transform="matrix(1 0 0 1 2633.72 505)">I</text><text fill="#F0F8FF" font-family="Cascadia Code,Cascadia Code_MSFontService,sans-serif" font-weight="700" font-size="83" transform="matrix(1 0 0 1 2681.84 505)"> </text></g></svg>